<svg width="18" height="20" viewBox="0 0 18 20" fill="none" xmlns="http://www.w3.org/2000/svg">
<path fill-rule="evenodd" clip-rule="evenodd" d="M11.8199 2H16C17.1 2 18 2.89999 18 4V18C18 19.1 17.1 20 16 20H2C1.85999 20 1.72998 19.99 1.59998 19.97C1.20996 19.89 0.859985 19.69 0.589966 19.42C0.410034 19.23 0.26001 19.02 0.160034 18.78C0.0600586 18.54 0 18.27 0 18V4C0 3.72 0.0600586 3.45999 0.160034 3.23001C0.26001 2.98999 0.410034 2.76999 0.589966 2.59C0.859985 2.32001 1.20996 2.12 1.59998 2.04001C1.72998 2.01001 1.85999 2 2 2H6.18005C6.59998 0.839996 7.69995 0 9 0C10.3 0 11.4 0.839996 11.8199 2ZM4 8V6H14V8H4ZM14 12V10H4V12H14ZM11 14H4V16H11V14ZM9 1.75C9.41003 1.75 9.75 2.09 9.75 2.5C9.75 2.91 9.41003 3.25 9 3.25C8.58997 3.25 8.25 2.91 8.25 2.5C8.25 2.09 8.58997 1.75 9 1.75ZM2 18H16V4H2V18Z" fill="black" fill-opacity="0.54"/>
</svg>
